<svg width="2521" height="2187" viewBox="0 0 2521 2187" fill="none" xmlns="http://www.w3.org/2000/svg">
<path d="M1264.17 57.75L1249.88 33L1235.59 57.75L877.16 678.574L862.871 703.324H891.45H1608.32H1636.89L1622.61 678.574L1264.17 57.75Z" fill="#F1A639" stroke="#F1A639" stroke-width="33"/>
<path d="M168.733 1911.98L168.592 1912.22L168.458 1912.46L41.5106 2145.49L28.2216 2169.88H56H1697.62H1726.69L1711.79 2144.92L1572.76 1912.06L1572.67 1911.9L1249.31 1355.58L1244.54 1347.37H1235.04H814.912L975.041 1069.09H1334.17H1363.15L1348.35 1044.17L1216.19 821.576L1211.4 813.5H1202H807.249H797.58L792.854 821.935L493.828 1355.66L347.837 1604.19L333.236 1629.05H362.065H1091.61L1249.97 1903.85H482.265L334.12 1678.27L319.573 1656.12L306.115 1678.95L168.733 1911.98Z" fill="black" stroke="black" stroke-width="33"/>
<path d="M1708.93 821.688L1704.15 813.5H1694.67H1406H1377.31L1391.74 838.297L2018.14 1915.08L1885.66 2139.78L1871 2164.66H1899.88H2463.31H2492.04L2477.57 2139.85L1708.93 821.688Z" fill="black" stroke="black" stroke-width="33"/>
</svg>
